<?xml version="1.0" encoding="UTF-8" standalone="no"?>
<!DOCTYPE svg PUBLIC "-//W3C//DTD SVG 1.1//EN"
 "http://www.w3.org/Graphics/SVG/1.1/DTD/svg11.dtd">
<!-- Generated by graphviz version 8.0.5 (20230430.1635)
 -->
<!-- Title: G Pages: 1 -->
<svg width="2132pt" height="452pt"
 viewBox="0.00 0.00 2132.00 451.78" xmlns="http://www.w3.org/2000/svg" xmlns:xlink="http://www.w3.org/1999/xlink">
<g id="graph0" class="graph" transform="scale(1 1) rotate(0) translate(4 447.78)">
<title>G</title>
<polygon fill="white" stroke="none" points="-4,4 -4,-447.78 2128,-447.78 2128,4 -4,4"/>
<!-- github.com/djdv/go&#45;filesystem&#45;utils/cmd/fs -->
<g id="node1" class="node">
<title>github.com/djdv/go&#45;filesystem&#45;utils/cmd/fs</title>
<g id="a_node1"><a xlink:href="https://pkg.go.dev/github.com/djdv/go-filesystem-utils/cmd/fs" xlink:title="github.com/djdv/go&#45;filesystem&#45;utils/cmd/fs" target="_graphviz">
<polygon fill="none" stroke="#074891" stroke-width="2" stroke-opacity="0.698039" points="216,-361.78 0,-361.78 0,-325.78 216,-325.78 216,-361.78"/>
<text text-anchor="middle" x="108" y="-339.91" font-family="Times New Roman,serif" font-size="10.00">github.com/djdv/go&#45;filesystem&#45;utils/cmd/fs</text>
</a>
</g>
</g>
<!-- github.com/djdv/go&#45;filesystem&#45;utils/internal/command -->
<g id="node2" class="node">
<title>github.com/djdv/go&#45;filesystem&#45;utils/internal/command</title>
<g id="a_node2"><a xlink:href="https://pkg.go.dev/github.com/djdv/go-filesystem-utils/internal/command" xlink:title="github.com/djdv/go&#45;filesystem&#45;utils/internal/command" target="_graphviz">
<polygon fill="none" stroke="#911107" stroke-width="2" stroke-opacity="0.698039" points="954,-443.78 702,-443.78 702,-407.78 954,-407.78 954,-443.78"/>
<text text-anchor="middle" x="828" y="-421.91" font-family="Times New Roman,serif" font-size="10.00">github.com/djdv/go&#45;filesystem&#45;utils/internal/command</text>
</a>
</g>
</g>
<!-- github.com/djdv/go&#45;filesystem&#45;utils/cmd/fs&#45;&gt;github.com/djdv/go&#45;filesystem&#45;utils/internal/command -->
<g id="edge1" class="edge">
<title>github.com/djdv/go&#45;filesystem&#45;utils/cmd/fs:e&#45;&gt;github.com/djdv/go&#45;filesystem&#45;utils/internal/command</title>
<path fill="none" stroke="#911107" stroke-width="2" stroke-opacity="0.698039" d="M216,-343.78C307.67,-343.78 550.26,-380.5 700.73,-404.8"/>
<polygon fill="#911107" fill-opacity="0.698039" stroke="#911107" stroke-width="2" stroke-opacity="0.698039" points="700.77,-408.67 711.2,-406.81 701.89,-401.76 700.77,-408.67"/>
</g>
<!-- github.com/djdv/go&#45;filesystem&#45;utils/internal/commands -->
<g id="node3" class="node">
<title>github.com/djdv/go&#45;filesystem&#45;utils/internal/commands</title>
<g id="a_node3"><a xlink:href="https://pkg.go.dev/github.com/djdv/go-filesystem-utils/internal/commands" xlink:title="github.com/djdv/go&#45;filesystem&#45;utils/internal/commands" target="_graphviz">
<polygon fill="none" stroke="#2b0791" stroke-width="2" stroke-opacity="0.698039" points="576,-338.78 324,-338.78 324,-302.78 576,-302.78 576,-338.78"/>
<text text-anchor="middle" x="450" y="-316.91" font-family="Times New Roman,serif" font-size="10.00">github.com/djdv/go&#45;filesystem&#45;utils/internal/commands</text>
</a>
</g>
</g>
<!-- github.com/djdv/go&#45;filesystem&#45;utils/cmd/fs&#45;&gt;github.com/djdv/go&#45;filesystem&#45;utils/internal/commands -->
<g id="edge2" class="edge">
<title>github.com/djdv/go&#45;filesystem&#45;utils/cmd/fs:e&#45;&gt;github.com/djdv/go&#45;filesystem&#45;utils/internal/commands</title>
<path fill="none" stroke="#2b0791" stroke-width="2" stroke-opacity="0.698039" d="M216,-343.78C246.63,-343.78 279.43,-341.79 310.45,-338.98"/>
<polygon fill="#2b0791" fill-opacity="0.698039" stroke="#2b0791" stroke-width="2" stroke-opacity="0.698039" points="310.54,-342.2 320.16,-337.77 309.88,-335.23 310.54,-342.2"/>
</g>
<!-- github.com/djdv/go&#45;filesystem&#45;utils/internal/generic -->
<g id="node10" class="node">
<title>github.com/djdv/go&#45;filesystem&#45;utils/internal/generic</title>
<g id="a_node10"><a xlink:href="https://pkg.go.dev/github.com/djdv/go-filesystem-utils/internal/generic" xlink:title="github.com/djdv/go&#45;filesystem&#45;utils/internal/generic" target="_graphviz">
<polygon fill="none" stroke="#910748" stroke-width="2" stroke-opacity="0.698039" points="2124,-334.78 1872,-334.78 1872,-298.78 2124,-298.78 2124,-334.78"/>
<text text-anchor="middle" x="1998" y="-312.91" font-family="Times New Roman,serif" font-size="10.00">github.com/djdv/go&#45;filesystem&#45;utils/internal/generic</text>
</a>
</g>
</g>
<!-- github.com/djdv/go&#45;filesystem&#45;utils/internal/command&#45;&gt;github.com/djdv/go&#45;filesystem&#45;utils/internal/generic -->
<g id="edge3" class="edge">
<title>github.com/djdv/go&#45;filesystem&#45;utils/internal/command:e&#45;&gt;github.com/djdv/go&#45;filesystem&#45;utils/internal/generic</title>
<path fill="none" stroke="#910748" stroke-width="2" stroke-opacity="0.698039" d="M955,-425.78C1314.74,-425.78 1410.54,-466.72 1764,-399.78 1828.1,-387.64 1898.18,-360.68 1944.56,-340.76"/>
<polygon fill="#910748" fill-opacity="0.698039" stroke="#910748" stroke-width="2" stroke-opacity="0.698039" points="1946.64,-343.81 1954.41,-336.61 1943.84,-337.39 1946.64,-343.81"/>
</g>
<!-- github.com/djdv/go&#45;filesystem&#45;utils/internal/commands&#45;&gt;github.com/djdv/go&#45;filesystem&#45;utils/internal/command -->
<g id="edge4" class="edge">
<title>github.com/djdv/go&#45;filesystem&#45;utils/internal/commands:e&#45;&gt;github.com/djdv/go&#45;filesystem&#45;utils/internal/command</title>
<path fill="none" stroke="#911107" stroke-width="2" stroke-opacity="0.698039" d="M576,-320.78C633.94,-320.78 630.8,-370.83 684,-393.78 692.02,-397.24 700.46,-400.35 709.06,-403.13"/>
<polygon fill="#911107" fill-opacity="0.698039" stroke="#911107" stroke-width="2" stroke-opacity="0.698039" points="708.72,-407.3 719.3,-406.86 710.76,-400.6 708.72,-407.3"/>
</g>
<!-- github.com/djdv/go&#45;filesystem&#45;utils/internal/filesystem -->
<g id="node4" class="node">
<title>github.com/djdv/go&#45;filesystem&#45;utils/internal/filesystem</title>
<g id="a_node4"><a xlink:href="https://pkg.go.dev/github.com/djdv/go-filesystem-utils/internal/filesystem" xlink:title="github.com/djdv/go&#45;filesystem&#45;utils/internal/filesystem" target="_graphviz">
<polygon fill="none" stroke="#8d0791" stroke-width="2" stroke-opacity="0.698039" points="1764,-158.78 1512,-158.78 1512,-122.78 1764,-122.78 1764,-158.78"/>
<text text-anchor="middle" x="1638" y="-136.91" font-family="Times New Roman,serif" font-size="10.00">github.com/djdv/go&#45;filesystem&#45;utils/internal/filesystem</text>
</a>
</g>
</g>
<!-- github.com/djdv/go&#45;filesystem&#45;utils/internal/commands&#45;&gt;github.com/djdv/go&#45;filesystem&#45;utils/internal/filesystem -->
<g id="edge5" class="edge">
<title>github.com/djdv/go&#45;filesystem&#45;utils/internal/commands:e&#45;&gt;github.com/djdv/go&#45;filesystem&#45;utils/internal/filesystem</title>
<path fill="none" stroke="#8d0791" stroke-width="2" stroke-opacity="0.698039" d="M576,-320.78C681.35,-320.78 597.83,-170.38 684,-109.78 829.15,-7.7 902.91,-70.14 1080,-58.78 1223.7,-49.57 1262.06,-34.53 1404,-58.78 1468.41,-69.79 1538.7,-96.74 1585.04,-116.76"/>
<polygon fill="#8d0791" fill-opacity="0.698039" stroke="#8d0791" stroke-width="2" stroke-opacity="0.698039" points="1584.31,-120.14 1594.87,-120.95 1587.12,-113.73 1584.31,-120.14"/>
</g>
<!-- github.com/djdv/go&#45;filesystem&#45;utils/internal/filesystem/9p -->
<g id="node5" class="node">
<title>github.com/djdv/go&#45;filesystem&#45;utils/internal/filesystem/9p</title>
<g id="a_node5"><a xlink:href="https://pkg.go.dev/github.com/djdv/go-filesystem-utils/internal/filesystem/9p" xlink:title="github.com/djdv/go&#45;filesystem&#45;utils/internal/filesystem/9p" target="_graphviz">
<polygon fill="none" stroke="#073f91" stroke-width="2" stroke-opacity="0.698039" points="1368,-273.78 1116,-273.78 1116,-237.78 1368,-237.78 1368,-273.78"/>
<text text-anchor="middle" x="1242" y="-251.91" font-family="Times New Roman,serif" font-size="10.00">github.com/djdv/go&#45;filesystem&#45;utils/internal/filesystem/9p</text>
</a>
</g>
</g>
<!-- github.com/djdv/go&#45;filesystem&#45;utils/internal/commands&#45;&gt;github.com/djdv/go&#45;filesystem&#45;utils/internal/filesystem/9p -->
<g id="edge6" class="edge">
<title>github.com/djdv/go&#45;filesystem&#45;utils/internal/commands:e&#45;&gt;github.com/djdv/go&#45;filesystem&#45;utils/internal/filesystem/9p</title>
<path fill="none" stroke="#073f91" stroke-width="2" stroke-opacity="0.698039" d="M576,-320.78C760.86,-320.78 973.26,-295.59 1107.28,-276.58"/>
<polygon fill="#073f91" fill-opacity="0.698039" stroke="#073f91" stroke-width="2" stroke-opacity="0.698039" points="1108.6,-279.64 1118,-274.76 1107.6,-272.71 1108.6,-279.64"/>
</g>
<!-- github.com/djdv/go&#45;filesystem&#45;utils/internal/filesystem/cgofuse -->
<g id="node6" class="node">
<title>github.com/djdv/go&#45;filesystem&#45;utils/internal/filesystem/cgofuse</title>
<g id="a_node6"><a xlink:href="https://pkg.go.dev/github.com/djdv/go-filesystem-utils/internal/filesystem/cgofuse" xlink:title="github.com/djdv/go&#45;filesystem&#45;utils/internal/filesystem/cgofuse" target="_graphviz">
<polygon fill="none" stroke="#073891" stroke-width="2" stroke-opacity="0.698039" points="972,-154.78 684,-154.78 684,-118.78 972,-118.78 972,-154.78"/>
<text text-anchor="middle" x="828" y="-132.91" font-family="Times New Roman,serif" font-size="10.00">github.com/djdv/go&#45;filesystem&#45;utils/internal/filesystem/cgofuse</text>
</a>
</g>
</g>
<!-- github.com/djdv/go&#45;filesystem&#45;utils/internal/commands&#45;&gt;github.com/djdv/go&#45;filesystem&#45;utils/internal/filesystem/cgofuse -->
<g id="edge7" class="edge">
<title>github.com/djdv/go&#45;filesystem&#45;utils/internal/commands:e&#45;&gt;github.com/djdv/go&#45;filesystem&#45;utils/internal/filesystem/cgofuse</title>
<path fill="none" stroke="#073891" stroke-width="2" stroke-opacity="0.698039" d="M576,-320.78C639.05,-320.78 633.37,-266.37 684,-228.78 716.43,-204.7 755.05,-180.08 783.97,-162.37"/>
<polygon fill="#073891" fill-opacity="0.698039" stroke="#073891" stroke-width="2" stroke-opacity="0.698039" points="786.22,-164.89 792.94,-156.71 782.58,-158.91 786.22,-164.89"/>
</g>
<!-- github.com/djdv/go&#45;filesystem&#45;utils/internal/filesystem/ipfs -->
<g id="node9" class="node">
<title>github.com/djdv/go&#45;filesystem&#45;utils/internal/filesystem/ipfs</title>
<g id="a_node9"><a xlink:href="https://pkg.go.dev/github.com/djdv/go-filesystem-utils/internal/filesystem/ipfs" xlink:title="github.com/djdv/go&#45;filesystem&#45;utils/internal/filesystem/ipfs" target="_graphviz">
<polygon fill="none" stroke="#07910b" stroke-width="2" stroke-opacity="0.698039" points="972,-273.78 684,-273.78 684,-237.78 972,-237.78 972,-273.78"/>
<text text-anchor="middle" x="828" y="-251.91" font-family="Times New Roman,serif" font-size="10.00">github.com/djdv/go&#45;filesystem&#45;utils/internal/filesystem/ipfs</text>
</a>
</g>
</g>
<!-- github.com/djdv/go&#45;filesystem&#45;utils/internal/commands&#45;&gt;github.com/djdv/go&#45;filesystem&#45;utils/internal/filesystem/ipfs -->
<g id="edge8" class="edge">
<title>github.com/djdv/go&#45;filesystem&#45;utils/internal/commands:e&#45;&gt;github.com/djdv/go&#45;filesystem&#45;utils/internal/filesystem/ipfs</title>
<path fill="none" stroke="#07910b" stroke-width="2" stroke-opacity="0.698039" d="M576,-320.78C626.19,-320.78 635.47,-300.6 684,-287.78 697.18,-284.3 711.11,-280.87 724.9,-277.63"/>
<polygon fill="#07910b" fill-opacity="0.698039" stroke="#07910b" stroke-width="2" stroke-opacity="0.698039" points="726.54,-280.38 735.5,-274.71 724.96,-273.56 726.54,-280.38"/>
</g>
<!-- github.com/djdv/go&#45;filesystem&#45;utils/internal/commands&#45;&gt;github.com/djdv/go&#45;filesystem&#45;utils/internal/generic -->
<g id="edge9" class="edge">
<title>github.com/djdv/go&#45;filesystem&#45;utils/internal/commands:e&#45;&gt;github.com/djdv/go&#45;filesystem&#45;utils/internal/generic</title>
<path fill="none" stroke="#910748" stroke-width="2" stroke-opacity="0.698039" d="M576,-320.78C624.46,-320.78 635.73,-331.54 684,-335.78 1050.84,-368.04 1143.81,-359.89 1512,-366.78 1623.98,-368.88 1652.62,-378.6 1764,-366.78 1814.75,-361.4 1870.7,-349.59 1915.04,-338.8"/>
<polygon fill="#910748" fill-opacity="0.698039" stroke="#910748" stroke-width="2" stroke-opacity="0.698039" points="1916.66,-341.52 1925.53,-335.72 1914.98,-334.72 1916.66,-341.52"/>
</g>
<!-- github.com/djdv/go&#45;filesystem&#45;utils/internal/net/9p -->
<g id="node11" class="node">
<title>github.com/djdv/go&#45;filesystem&#45;utils/internal/net/9p</title>
<g id="a_node11"><a xlink:href="https://pkg.go.dev/github.com/djdv/go-filesystem-utils/internal/net/9p" xlink:title="github.com/djdv/go&#45;filesystem&#45;utils/internal/net/9p" target="_graphviz">
<polygon fill="none" stroke="#910744" stroke-width="2" stroke-opacity="0.698039" points="1764,-357.78 1512,-357.78 1512,-321.78 1764,-321.78 1764,-357.78"/>
<text text-anchor="middle" x="1638" y="-335.91" font-family="Times New Roman,serif" font-size="10.00">github.com/djdv/go&#45;filesystem&#45;utils/internal/net/9p</text>
</a>
</g>
</g>
<!-- github.com/djdv/go&#45;filesystem&#45;utils/internal/commands&#45;&gt;github.com/djdv/go&#45;filesystem&#45;utils/internal/net/9p -->
<g id="edge10" class="edge">
<title>github.com/djdv/go&#45;filesystem&#45;utils/internal/commands:e&#45;&gt;github.com/djdv/go&#45;filesystem&#45;utils/internal/net/9p</title>
<path fill="none" stroke="#910744" stroke-width="2" stroke-opacity="0.698039" d="M576,-320.78C906.97,-320.78 1295.91,-330.14 1498.48,-335.72"/>
<polygon fill="#910744" fill-opacity="0.698039" stroke="#910744" stroke-width="2" stroke-opacity="0.698039" points="1498.16,-339.29 1508.25,-336.07 1498.35,-332.3 1498.16,-339.29"/>
</g>
<!-- github.com/djdv/go&#45;filesystem&#45;utils/internal/filesystem/9p&#45;&gt;github.com/djdv/go&#45;filesystem&#45;utils/internal/filesystem -->
<g id="edge11" class="edge">
<title>github.com/djdv/go&#45;filesystem&#45;utils/internal/filesystem/9p:e&#45;&gt;github.com/djdv/go&#45;filesystem&#45;utils/internal/filesystem</title>
<path fill="none" stroke="#8d0791" stroke-width="2" stroke-opacity="0.698039" d="M1369,-255.78C1458.43,-255.78 1552.04,-201.03 1601.49,-167.08"/>
<polygon fill="#8d0791" fill-opacity="0.698039" stroke="#8d0791" stroke-width="2" stroke-opacity="0.698039" points="1603.74,-169.38 1609.93,-160.77 1599.73,-163.64 1603.74,-169.38"/>
</g>
<!-- github.com/djdv/go&#45;filesystem&#45;utils/internal/filesystem/9p&#45;&gt;github.com/djdv/go&#45;filesystem&#45;utils/internal/generic -->
<g id="edge12" class="edge">
<title>github.com/djdv/go&#45;filesystem&#45;utils/internal/filesystem/9p:e&#45;&gt;github.com/djdv/go&#45;filesystem&#45;utils/internal/generic</title>
<path fill="none" stroke="#910748" stroke-width="2" stroke-opacity="0.698039" d="M1369,-255.78C1544.88,-255.78 1589.17,-260.63 1764,-279.78 1801.42,-283.88 1842.01,-289.81 1878.66,-295.72"/>
<polygon fill="#910748" fill-opacity="0.698039" stroke="#910748" stroke-width="2" stroke-opacity="0.698039" points="1879.02,-299.65 1889.45,-297.8 1880.14,-292.74 1879.02,-299.65"/>
</g>
<!-- github.com/djdv/go&#45;filesystem&#45;utils/internal/filesystem/9p&#45;&gt;github.com/djdv/go&#45;filesystem&#45;utils/internal/net/9p -->
<g id="edge13" class="edge">
<title>github.com/djdv/go&#45;filesystem&#45;utils/internal/filesystem/9p:e&#45;&gt;github.com/djdv/go&#45;filesystem&#45;utils/internal/net/9p</title>
<path fill="none" stroke="#910744" stroke-width="2" stroke-opacity="0.698039" d="M1369,-255.78C1449.29,-255.78 1537.18,-290.54 1589.67,-315.34"/>
<polygon fill="#910744" fill-opacity="0.698039" stroke="#910744" stroke-width="2" stroke-opacity="0.698039" points="1588.74,-318.74 1599.27,-319.93 1591.78,-312.44 1588.74,-318.74"/>
</g>
<!-- github.com/djdv/go&#45;filesystem&#45;utils/internal/filesystem/cgofuse&#45;&gt;github.com/djdv/go&#45;filesystem&#45;utils/internal/filesystem -->
<g id="edge14" class="edge">
<title>github.com/djdv/go&#45;filesystem&#45;utils/internal/filesystem/cgofuse:e&#45;&gt;github.com/djdv/go&#45;filesystem&#45;utils/internal/filesystem</title>
<path fill="none" stroke="#8d0791" stroke-width="2" stroke-opacity="0.698039" d="M972,-136.78C1025.67,-136.78 1027.77,-95.11 1080,-82.78 1220.15,-49.7 1261.07,-65.26 1404,-82.78 1459.03,-89.53 1519.77,-104.92 1565.43,-118.15"/>
<polygon fill="#8d0791" fill-opacity="0.698039" stroke="#8d0791" stroke-width="2" stroke-opacity="0.698039" points="1565.31,-122.35 1575.89,-121.82 1567.29,-115.64 1565.31,-122.35"/>
</g>
<!-- github.com/djdv/go&#45;filesystem&#45;utils/internal/filesystem/cgofuse&#45;&gt;github.com/djdv/go&#45;filesystem&#45;utils/internal/filesystem/9p -->
<g id="edge15" class="edge">
<title>github.com/djdv/go&#45;filesystem&#45;utils/internal/filesystem/cgofuse:e&#45;&gt;github.com/djdv/go&#45;filesystem&#45;utils/internal/filesystem/9p</title>
<path fill="none" stroke="#073f91" stroke-width="2" stroke-opacity="0.698039" d="M972,-136.78C1025.67,-136.78 1031.08,-168.72 1080,-190.78 1112.36,-205.38 1149.02,-220.3 1179.18,-232.16"/>
<polygon fill="#073f91" fill-opacity="0.698039" stroke="#073f91" stroke-width="2" stroke-opacity="0.698039" points="1178.66,-235.5 1189.24,-235.88 1181.21,-228.98 1178.66,-235.5"/>
</g>
<!-- github.com/djdv/go&#45;filesystem&#45;utils/internal/filesystem/cgofuse/lock -->
<g id="node7" class="node">
<title>github.com/djdv/go&#45;filesystem&#45;utils/internal/filesystem/cgofuse/lock</title>
<g id="a_node7"><a xlink:href="https://pkg.go.dev/github.com/djdv/go-filesystem-utils/internal/filesystem/cgofuse/lock" xlink:title="github.com/djdv/go&#45;filesystem&#45;utils/internal/filesystem/cgofuse/lock" target="_graphviz">
<polygon fill="none" stroke="#91072c" stroke-width="2" stroke-opacity="0.698039" points="1404,-127.78 1080,-127.78 1080,-91.78 1404,-91.78 1404,-127.78"/>
<text text-anchor="middle" x="1242" y="-105.91" font-family="Times New Roman,serif" font-size="10.00">github.com/djdv/go&#45;filesystem&#45;utils/internal/filesystem/cgofuse/lock</text>
</a>
</g>
</g>
<!-- github.com/djdv/go&#45;filesystem&#45;utils/internal/filesystem/cgofuse&#45;&gt;github.com/djdv/go&#45;filesystem&#45;utils/internal/filesystem/cgofuse/lock -->
<g id="edge16" class="edge">
<title>github.com/djdv/go&#45;filesystem&#45;utils/internal/filesystem/cgofuse:e&#45;&gt;github.com/djdv/go&#45;filesystem&#45;utils/internal/filesystem/cgofuse/lock</title>
<path fill="none" stroke="#91072c" stroke-width="2" stroke-opacity="0.698039" d="M972,-136.78C1011.09,-136.78 1053.22,-133.92 1092.27,-130.07"/>
<polygon fill="#91072c" fill-opacity="0.698039" stroke="#91072c" stroke-width="2" stroke-opacity="0.698039" points="1092.52,-133.25 1102.11,-128.75 1091.8,-126.29 1092.52,-133.25"/>
</g>
<!-- github.com/djdv/go&#45;filesystem&#45;utils/internal/filesystem/errors -->
<g id="node8" class="node">
<title>github.com/djdv/go&#45;filesystem&#45;utils/internal/filesystem/errors</title>
<g id="a_node8"><a xlink:href="https://pkg.go.dev/github.com/djdv/go-filesystem-utils/internal/filesystem/errors" xlink:title="github.com/djdv/go&#45;filesystem&#45;utils/internal/filesystem/errors" target="_graphviz">
<polygon fill="none" stroke="#3a9107" stroke-width="2" stroke-opacity="0.698039" points="1386,-181.78 1098,-181.78 1098,-145.78 1386,-145.78 1386,-181.78"/>
<text text-anchor="middle" x="1242" y="-159.91" font-family="Times New Roman,serif" font-size="10.00">github.com/djdv/go&#45;filesystem&#45;utils/internal/filesystem/errors</text>
</a>
</g>
</g>
<!-- github.com/djdv/go&#45;filesystem&#45;utils/internal/filesystem/cgofuse&#45;&gt;github.com/djdv/go&#45;filesystem&#45;utils/internal/filesystem/errors -->
<g id="edge17" class="edge">
<title>github.com/djdv/go&#45;filesystem&#45;utils/internal/filesystem/cgofuse:e&#45;&gt;github.com/djdv/go&#45;filesystem&#45;utils/internal/filesystem/errors</title>
<path fill="none" stroke="#3a9107" stroke-width="2" stroke-opacity="0.698039" d="M972,-136.78C1011.09,-136.78 1053.22,-139.64 1092.27,-143.5"/>
<polygon fill="#3a9107" fill-opacity="0.698039" stroke="#3a9107" stroke-width="2" stroke-opacity="0.698039" points="1091.8,-147.27 1102.11,-144.81 1092.52,-140.31 1091.8,-147.27"/>
</g>
<!-- github.com/djdv/go&#45;filesystem&#45;utils/internal/filesystem/cgofuse&#45;&gt;github.com/djdv/go&#45;filesystem&#45;utils/internal/generic -->
<g id="edge18" class="edge">
<title>github.com/djdv/go&#45;filesystem&#45;utils/internal/filesystem/cgofuse:e&#45;&gt;github.com/djdv/go&#45;filesystem&#45;utils/internal/generic</title>
<path fill="none" stroke="#910748" stroke-width="2" stroke-opacity="0.698039" d="M972,-136.78C1031.21,-136.78 1023.66,-77 1080,-58.78 1370.19,35.05 1487.31,14.51 1764,-113.78 1854.09,-155.55 1935.7,-243.03 1974,-288.29"/>
<polygon fill="#910748" fill-opacity="0.698039" stroke="#910748" stroke-width="2" stroke-opacity="0.698039" points="1972.06,-290.62 1981.15,-296.06 1977.43,-286.14 1972.06,-290.62"/>
</g>
<!-- github.com/djdv/go&#45;filesystem&#45;utils/internal/filesystem/ipfs&#45;&gt;github.com/djdv/go&#45;filesystem&#45;utils/internal/filesystem -->
<g id="edge19" class="edge">
<title>github.com/djdv/go&#45;filesystem&#45;utils/internal/filesystem/ipfs:e&#45;&gt;github.com/djdv/go&#45;filesystem&#45;utils/internal/filesystem</title>
<path fill="none" stroke="#8d0791" stroke-width="2" stroke-opacity="0.698039" d="M972,-255.78C1021.48,-255.78 1031.33,-237.68 1080,-228.78 1222.62,-202.7 1260.96,-214.46 1404,-190.78 1450.71,-183.05 1502.22,-172.24 1544.9,-162.65"/>
<polygon fill="#8d0791" fill-opacity="0.698039" stroke="#8d0791" stroke-width="2" stroke-opacity="0.698039" points="1546.58,-165.4 1555.56,-159.78 1545.03,-158.58 1546.58,-165.4"/>
</g>
<!-- github.com/djdv/go&#45;filesystem&#45;utils/internal/filesystem/ipfs&#45;&gt;github.com/djdv/go&#45;filesystem&#45;utils/internal/filesystem/9p -->
<g id="edge20" class="edge">
<title>github.com/djdv/go&#45;filesystem&#45;utils/internal/filesystem/ipfs:e&#45;&gt;github.com/djdv/go&#45;filesystem&#45;utils/internal/filesystem/9p</title>
<path fill="none" stroke="#073f91" stroke-width="2" stroke-opacity="0.698039" d="M972,-255.78C1014.32,-255.78 1060.39,-255.78 1102.25,-255.78"/>
<polygon fill="#073f91" fill-opacity="0.698039" stroke="#073f91" stroke-width="2" stroke-opacity="0.698039" points="1102.1,-259.28 1112.1,-255.78 1102.1,-252.28 1102.1,-259.28"/>
</g>
<!-- github.com/djdv/go&#45;filesystem&#45;utils/internal/filesystem/ipfs&#45;&gt;github.com/djdv/go&#45;filesystem&#45;utils/internal/filesystem/errors -->
<g id="edge21" class="edge">
<title>github.com/djdv/go&#45;filesystem&#45;utils/internal/filesystem/ipfs:e&#45;&gt;github.com/djdv/go&#45;filesystem&#45;utils/internal/filesystem/errors</title>
<path fill="none" stroke="#3a9107" stroke-width="2" stroke-opacity="0.698039" d="M972,-255.78C1026.91,-255.78 1028.45,-214.7 1080,-195.78 1089.9,-192.15 1100.31,-188.9 1110.86,-185.99"/>
<polygon fill="#3a9107" fill-opacity="0.698039" stroke="#3a9107" stroke-width="2" stroke-opacity="0.698039" points="1112.51,-188.66 1121.3,-182.74 1110.74,-181.88 1112.51,-188.66"/>
</g>
<!-- github.com/djdv/go&#45;filesystem&#45;utils/internal/filesystem/ipfs&#45;&gt;github.com/djdv/go&#45;filesystem&#45;utils/internal/generic -->
<g id="edge22" class="edge">
<title>github.com/djdv/go&#45;filesystem&#45;utils/internal/filesystem/ipfs:e&#45;&gt;github.com/djdv/go&#45;filesystem&#45;utils/internal/generic</title>
<path fill="none" stroke="#910748" stroke-width="2" stroke-opacity="0.698039" d="M972,-255.78C1021.48,-255.78 1031.01,-275.83 1080,-282.78 1154.68,-293.38 1620.75,-306.91 1858.23,-313.23"/>
<polygon fill="#910748" fill-opacity="0.698039" stroke="#910748" stroke-width="2" stroke-opacity="0.698039" points="1858.01,-316.8 1868.1,-313.57 1858.2,-309.8 1858.01,-316.8"/>
</g>
<!-- github.com/djdv/go&#45;filesystem&#45;utils/internal/net/9p&#45;&gt;github.com/djdv/go&#45;filesystem&#45;utils/internal/generic -->
<g id="edge23" class="edge">
<title>github.com/djdv/go&#45;filesystem&#45;utils/internal/net/9p:e&#45;&gt;github.com/djdv/go&#45;filesystem&#45;utils/internal/generic</title>
<path fill="none" stroke="#910748" stroke-width="2" stroke-opacity="0.698039" d="M1764,-339.78C1794.63,-339.78 1827.43,-337.79 1858.45,-334.98"/>
<polygon fill="#910748" fill-opacity="0.698039" stroke="#910748" stroke-width="2" stroke-opacity="0.698039" points="1858.54,-338.2 1868.16,-333.77 1857.88,-331.23 1858.54,-338.2"/>
</g>
</g>
</svg>
